<?xml version="1.0" encoding="utf-8"?>
<svg xmlns="http://www.w3.org/2000/svg" xmlns:xlink="http://www.w3.org/1999/xlink" width="600" height="400" viewBox="0 0 2400 1600">
<defs>
  <clipPath id="clip530">
    <rect x="0" y="0" width="2400" height="1600"/>
  </clipPath>
</defs>
<path clip-path="url(#clip530)" d="M0 1600 L2400 1600 L2400 8.88178e-14 L0 8.88178e-14  Z" fill="#ffffff" fill-rule="evenodd" fill-opacity="1"/>
<defs>
  <clipPath id="clip531">
    <rect x="480" y="0" width="1681" height="1600"/>
  </clipPath>
</defs>
<path clip-path="url(#clip530)" d="M186.274 1486.45 L2352.76 1486.45 L2352.76 47.2441 L186.274 47.2441  Z" fill="#ffffff" fill-rule="evenodd" fill-opacity="1"/>
<defs>
  <clipPath id="clip532">
    <rect x="186" y="47" width="2167" height="1440"/>
  </clipPath>
</defs>
<polyline clip-path="url(#clip532)" style="stroke:#000000; stroke-linecap:round; stroke-linejoin:round; stroke-width:2; stroke-opacity:0.1; fill:none" points="226.945,1486.45 226.945,47.2441 "/>
<polyline clip-path="url(#clip532)" style="stroke:#000000; stroke-linecap:round; stroke-linejoin:round; stroke-width:2; stroke-opacity:0.1; fill:none" points="743.069,1486.45 743.069,47.2441 "/>
<polyline clip-path="url(#clip532)" style="stroke:#000000; stroke-linecap:round; stroke-linejoin:round; stroke-width:2; stroke-opacity:0.1; fill:none" points="1259.19,1486.45 1259.19,47.2441 "/>
<polyline clip-path="url(#clip532)" style="stroke:#000000; stroke-linecap:round; stroke-linejoin:round; stroke-width:2; stroke-opacity:0.1; fill:none" points="1775.32,1486.45 1775.32,47.2441 "/>
<polyline clip-path="url(#clip532)" style="stroke:#000000; stroke-linecap:round; stroke-linejoin:round; stroke-width:2; stroke-opacity:0.1; fill:none" points="2291.44,1486.45 2291.44,47.2441 "/>
<polyline clip-path="url(#clip532)" style="stroke:#000000; stroke-linecap:round; stroke-linejoin:round; stroke-width:2; stroke-opacity:0.1; fill:none" points="186.274,1454.89 2352.76,1454.89 "/>
<polyline clip-path="url(#clip532)" style="stroke:#000000; stroke-linecap:round; stroke-linejoin:round; stroke-width:2; stroke-opacity:0.1; fill:none" points="186.274,1112.96 2352.76,1112.96 "/>
<polyline clip-path="url(#clip532)" style="stroke:#000000; stroke-linecap:round; stroke-linejoin:round; stroke-width:2; stroke-opacity:0.1; fill:none" points="186.274,771.033 2352.76,771.033 "/>
<polyline clip-path="url(#clip532)" style="stroke:#000000; stroke-linecap:round; stroke-linejoin:round; stroke-width:2; stroke-opacity:0.1; fill:none" points="186.274,429.105 2352.76,429.105 "/>
<polyline clip-path="url(#clip532)" style="stroke:#000000; stroke-linecap:round; stroke-linejoin:round; stroke-width:2; stroke-opacity:0.1; fill:none" points="186.274,87.1766 2352.76,87.1766 "/>
<polyline clip-path="url(#clip530)" style="stroke:#000000; stroke-linecap:round; stroke-linejoin:round; stroke-width:4; stroke-opacity:1; fill:none" points="186.274,1486.45 2352.76,1486.45 "/>
<polyline clip-path="url(#clip530)" style="stroke:#000000; stroke-linecap:round; stroke-linejoin:round; stroke-width:4; stroke-opacity:1; fill:none" points="226.945,1486.45 226.945,1467.55 "/>
<polyline clip-path="url(#clip530)" style="stroke:#000000; stroke-linecap:round; stroke-linejoin:round; stroke-width:4; stroke-opacity:1; fill:none" points="743.069,1486.45 743.069,1467.55 "/>
<polyline clip-path="url(#clip530)" style="stroke:#000000; stroke-linecap:round; stroke-linejoin:round; stroke-width:4; stroke-opacity:1; fill:none" points="1259.19,1486.45 1259.19,1467.55 "/>
<polyline clip-path="url(#clip530)" style="stroke:#000000; stroke-linecap:round; stroke-linejoin:round; stroke-width:4; stroke-opacity:1; fill:none" points="1775.32,1486.45 1775.32,1467.55 "/>
<polyline clip-path="url(#clip530)" style="stroke:#000000; stroke-linecap:round; stroke-linejoin:round; stroke-width:4; stroke-opacity:1; fill:none" points="2291.44,1486.45 2291.44,1467.55 "/>
<path clip-path="url(#clip530)" d="M226.945 1517.37 Q223.333 1517.37 221.505 1520.93 Q219.699 1524.47 219.699 1531.6 Q219.699 1538.71 221.505 1542.27 Q223.333 1545.82 226.945 1545.82 Q230.579 1545.82 232.384 1542.27 Q234.213 1538.71 234.213 1531.6 Q234.213 1524.47 232.384 1520.93 Q230.579 1517.37 226.945 1517.37 M226.945 1513.66 Q232.755 1513.66 235.81 1518.27 Q238.889 1522.85 238.889 1531.6 Q238.889 1540.33 235.81 1544.94 Q232.755 1549.52 226.945 1549.52 Q221.134 1549.52 218.056 1544.94 Q215 1540.33 215 1531.6 Q215 1522.85 218.056 1518.27 Q221.134 1513.66 226.945 1513.66 Z" fill="#000000" fill-rule="nonzero" fill-opacity="1" /><path clip-path="url(#clip530)" d="M722.339 1544.91 L738.659 1544.91 L738.659 1548.85 L716.714 1548.85 L716.714 1544.91 Q719.377 1542.16 723.96 1537.53 Q728.566 1532.88 729.747 1531.53 Q731.992 1529.01 732.872 1527.27 Q733.775 1525.51 733.775 1523.82 Q733.775 1521.07 731.83 1519.33 Q729.909 1517.6 726.807 1517.6 Q724.608 1517.6 722.154 1518.36 Q719.724 1519.13 716.946 1520.68 L716.946 1515.95 Q719.77 1514.82 722.224 1514.24 Q724.677 1513.66 726.714 1513.66 Q732.085 1513.66 735.279 1516.35 Q738.474 1519.03 738.474 1523.52 Q738.474 1525.65 737.663 1527.57 Q736.876 1529.47 734.77 1532.07 Q734.191 1532.74 731.089 1535.95 Q727.988 1539.15 722.339 1544.91 Z" fill="#000000" fill-rule="nonzero" fill-opacity="1" /><path clip-path="url(#clip530)" d="M748.52 1514.29 L766.876 1514.29 L766.876 1518.22 L752.802 1518.22 L752.802 1526.7 Q753.821 1526.35 754.839 1526.19 Q755.858 1526 756.876 1526 Q762.663 1526 766.043 1529.17 Q769.423 1532.34 769.423 1537.76 Q769.423 1543.34 765.95 1546.44 Q762.478 1549.52 756.159 1549.52 Q753.983 1549.52 751.714 1549.15 Q749.469 1548.78 747.062 1548.04 L747.062 1543.34 Q749.145 1544.47 751.367 1545.03 Q753.589 1545.58 756.066 1545.58 Q760.071 1545.58 762.409 1543.48 Q764.747 1541.37 764.747 1537.76 Q764.747 1534.15 762.409 1532.04 Q760.071 1529.94 756.066 1529.94 Q754.191 1529.94 752.316 1530.35 Q750.464 1530.77 748.52 1531.65 L748.52 1514.29 Z" fill="#000000" fill-rule="nonzero" fill-opacity="1" /><path clip-path="url(#clip530)" d="M1233.89 1514.29 L1252.25 1514.29 L1252.25 1518.22 L1238.17 1518.22 L1238.17 1526.7 Q1239.19 1526.35 1240.21 1526.19 Q1241.23 1526 1242.25 1526 Q1248.04 1526 1251.41 1529.17 Q1254.79 1532.34 1254.79 1537.76 Q1254.79 1543.34 1251.32 1546.44 Q1247.85 1549.52 1241.53 1549.52 Q1239.35 1549.52 1237.09 1549.15 Q1234.84 1548.78 1232.43 1548.04 L1232.43 1543.34 Q1234.52 1544.47 1236.74 1545.03 Q1238.96 1545.58 1241.44 1545.58 Q1245.44 1545.58 1247.78 1543.48 Q1250.12 1541.37 1250.12 1537.76 Q1250.12 1534.15 1247.78 1532.04 Q1245.44 1529.94 1241.44 1529.94 Q1239.56 1529.94 1237.69 1530.35 Q1235.84 1530.77 1233.89 1531.65 L1233.89 1514.29 Z" fill="#000000" fill-rule="nonzero" fill-opacity="1" /><path clip-path="url(#clip530)" d="M1274.01 1517.37 Q1270.4 1517.37 1268.57 1520.93 Q1266.76 1524.47 1266.76 1531.6 Q1266.76 1538.71 1268.57 1542.27 Q1270.4 1545.82 1274.01 1545.82 Q1277.64 1545.82 1279.45 1542.27 Q1281.28 1538.71 1281.28 1531.6 Q1281.28 1524.47 1279.45 1520.93 Q1277.64 1517.37 1274.01 1517.37 M1274.01 1513.66 Q1279.82 1513.66 1282.87 1518.27 Q1285.95 1522.85 1285.95 1531.6 Q1285.95 1540.33 1282.87 1544.94 Q1279.82 1549.52 1274.01 1549.52 Q1268.2 1549.52 1265.12 1544.94 Q1262.06 1540.33 1262.06 1531.6 Q1262.06 1522.85 1265.12 1518.27 Q1268.2 1513.66 1274.01 1513.66 Z" fill="#000000" fill-rule="nonzero" fill-opacity="1" /><path clip-path="url(#clip530)" d="M1749.17 1514.29 L1771.39 1514.29 L1771.39 1516.28 L1758.85 1548.85 L1753.96 1548.85 L1765.77 1518.22 L1749.17 1518.22 L1749.17 1514.29 Z" fill="#000000" fill-rule="nonzero" fill-opacity="1" /><path clip-path="url(#clip530)" d="M1780.56 1514.29 L1798.92 1514.29 L1798.92 1518.22 L1784.84 1518.22 L1784.84 1526.7 Q1785.86 1526.35 1786.88 1526.19 Q1787.9 1526 1788.92 1526 Q1794.7 1526 1798.08 1529.17 Q1801.46 1532.34 1801.46 1537.76 Q1801.46 1543.34 1797.99 1546.44 Q1794.52 1549.52 1788.2 1549.52 Q1786.02 1549.52 1783.75 1549.15 Q1781.51 1548.78 1779.1 1548.04 L1779.1 1543.34 Q1781.18 1544.47 1783.41 1545.03 Q1785.63 1545.58 1788.11 1545.58 Q1792.11 1545.58 1794.45 1543.48 Q1796.79 1541.37 1796.79 1537.76 Q1796.79 1534.15 1794.45 1532.04 Q1792.11 1529.94 1788.11 1529.94 Q1786.23 1529.94 1784.36 1530.35 Q1782.5 1530.77 1780.56 1531.65 L1780.56 1514.29 Z" fill="#000000" fill-rule="nonzero" fill-opacity="1" /><path clip-path="url(#clip530)" d="M2251.05 1544.91 L2258.69 1544.91 L2258.69 1518.55 L2250.38 1520.21 L2250.38 1515.95 L2258.64 1514.29 L2263.32 1514.29 L2263.32 1544.91 L2270.95 1544.91 L2270.95 1548.85 L2251.05 1548.85 L2251.05 1544.91 Z" fill="#000000" fill-rule="nonzero" fill-opacity="1" /><path clip-path="url(#clip530)" d="M2290.4 1517.37 Q2286.79 1517.37 2284.96 1520.93 Q2283.15 1524.47 2283.15 1531.6 Q2283.15 1538.71 2284.96 1542.27 Q2286.79 1545.82 2290.4 1545.82 Q2294.03 1545.82 2295.84 1542.27 Q2297.67 1538.71 2297.67 1531.6 Q2297.67 1524.47 2295.84 1520.93 Q2294.03 1517.37 2290.4 1517.37 M2290.4 1513.66 Q2296.21 1513.66 2299.26 1518.27 Q2302.34 1522.85 2302.34 1531.6 Q2302.34 1540.33 2299.26 1544.94 Q2296.21 1549.52 2290.4 1549.52 Q2284.59 1549.52 2281.51 1544.94 Q2278.45 1540.33 2278.45 1531.6 Q2278.45 1522.85 2281.51 1518.27 Q2284.59 1513.66 2290.4 1513.66 Z" fill="#000000" fill-rule="nonzero" fill-opacity="1" /><path clip-path="url(#clip530)" d="M2320.56 1517.37 Q2316.95 1517.37 2315.12 1520.93 Q2313.32 1524.47 2313.32 1531.6 Q2313.32 1538.71 2315.12 1542.27 Q2316.95 1545.82 2320.56 1545.82 Q2324.19 1545.82 2326 1542.27 Q2327.83 1538.71 2327.83 1531.6 Q2327.83 1524.47 2326 1520.93 Q2324.19 1517.37 2320.56 1517.37 M2320.56 1513.66 Q2326.37 1513.66 2329.43 1518.27 Q2332.5 1522.85 2332.5 1531.6 Q2332.5 1540.33 2329.43 1544.94 Q2326.37 1549.52 2320.56 1549.52 Q2314.75 1549.52 2311.67 1544.94 Q2308.62 1540.33 2308.62 1531.6 Q2308.62 1522.85 2311.67 1518.27 Q2314.75 1513.66 2320.56 1513.66 Z" fill="#000000" fill-rule="nonzero" fill-opacity="1" /><polyline clip-path="url(#clip530)" style="stroke:#000000; stroke-linecap:round; stroke-linejoin:round; stroke-width:4; stroke-opacity:1; fill:none" points="186.274,1486.45 186.274,47.2441 "/>
<polyline clip-path="url(#clip530)" style="stroke:#000000; stroke-linecap:round; stroke-linejoin:round; stroke-width:4; stroke-opacity:1; fill:none" points="186.274,1454.89 205.172,1454.89 "/>
<polyline clip-path="url(#clip530)" style="stroke:#000000; stroke-linecap:round; stroke-linejoin:round; stroke-width:4; stroke-opacity:1; fill:none" points="186.274,1112.96 205.172,1112.96 "/>
<polyline clip-path="url(#clip530)" style="stroke:#000000; stroke-linecap:round; stroke-linejoin:round; stroke-width:4; stroke-opacity:1; fill:none" points="186.274,771.033 205.172,771.033 "/>
<polyline clip-path="url(#clip530)" style="stroke:#000000; stroke-linecap:round; stroke-linejoin:round; stroke-width:4; stroke-opacity:1; fill:none" points="186.274,429.105 205.172,429.105 "/>
<polyline clip-path="url(#clip530)" style="stroke:#000000; stroke-linecap:round; stroke-linejoin:round; stroke-width:4; stroke-opacity:1; fill:none" points="186.274,87.1766 205.172,87.1766 "/>
<path clip-path="url(#clip530)" d="M62.9365 1440.69 Q59.3254 1440.69 57.4967 1444.25 Q55.6912 1447.8 55.6912 1454.92 Q55.6912 1462.03 57.4967 1465.6 Q59.3254 1469.14 62.9365 1469.14 Q66.5707 1469.14 68.3763 1465.6 Q70.205 1462.03 70.205 1454.92 Q70.205 1447.8 68.3763 1444.25 Q66.5707 1440.69 62.9365 1440.69 M62.9365 1436.99 Q68.7467 1436.99 71.8022 1441.59 Q74.8809 1446.18 74.8809 1454.92 Q74.8809 1463.65 71.8022 1468.26 Q68.7467 1472.84 62.9365 1472.84 Q57.1264 1472.84 54.0477 1468.26 Q50.9921 1463.65 50.9921 1454.92 Q50.9921 1446.18 54.0477 1441.59 Q57.1264 1436.99 62.9365 1436.99 Z" fill="#000000" fill-rule="nonzero" fill-opacity="1" /><path clip-path="url(#clip530)" d="M83.0984 1466.29 L87.9827 1466.29 L87.9827 1472.17 L83.0984 1472.17 L83.0984 1466.29 Z" fill="#000000" fill-rule="nonzero" fill-opacity="1" /><path clip-path="url(#clip530)" d="M108.168 1440.69 Q104.557 1440.69 102.728 1444.25 Q100.922 1447.8 100.922 1454.92 Q100.922 1462.03 102.728 1465.6 Q104.557 1469.14 108.168 1469.14 Q111.802 1469.14 113.608 1465.6 Q115.436 1462.03 115.436 1454.92 Q115.436 1447.8 113.608 1444.25 Q111.802 1440.69 108.168 1440.69 M108.168 1436.99 Q113.978 1436.99 117.033 1441.59 Q120.112 1446.18 120.112 1454.92 Q120.112 1463.65 117.033 1468.26 Q113.978 1472.84 108.168 1472.84 Q102.358 1472.84 99.2789 1468.26 Q96.2234 1463.65 96.2234 1454.92 Q96.2234 1446.18 99.2789 1441.59 Q102.358 1436.99 108.168 1436.99 Z" fill="#000000" fill-rule="nonzero" fill-opacity="1" /><path clip-path="url(#clip530)" d="M138.33 1440.69 Q134.719 1440.69 132.89 1444.25 Q131.084 1447.8 131.084 1454.92 Q131.084 1462.03 132.89 1465.6 Q134.719 1469.14 138.33 1469.14 Q141.964 1469.14 143.769 1465.6 Q145.598 1462.03 145.598 1454.92 Q145.598 1447.8 143.769 1444.25 Q141.964 1440.69 138.33 1440.69 M138.33 1436.99 Q144.14 1436.99 147.195 1441.59 Q150.274 1446.18 150.274 1454.92 Q150.274 1463.65 147.195 1468.26 Q144.14 1472.84 138.33 1472.84 Q132.519 1472.84 129.441 1468.26 Q126.385 1463.65 126.385 1454.92 Q126.385 1446.18 129.441 1441.59 Q132.519 1436.99 138.33 1436.99 Z" fill="#000000" fill-rule="nonzero" fill-opacity="1" /><path clip-path="url(#clip530)" d="M63.9319 1098.76 Q60.3208 1098.76 58.4921 1102.33 Q56.6865 1105.87 56.6865 1113 Q56.6865 1120.1 58.4921 1123.67 Q60.3208 1127.21 63.9319 1127.21 Q67.5661 1127.21 69.3717 1123.67 Q71.2004 1120.1 71.2004 1113 Q71.2004 1105.87 69.3717 1102.33 Q67.5661 1098.76 63.9319 1098.76 M63.9319 1095.06 Q69.742 1095.06 72.7976 1099.66 Q75.8763 1104.25 75.8763 1113 Q75.8763 1121.72 72.7976 1126.33 Q69.742 1130.91 63.9319 1130.91 Q58.1217 1130.91 55.043 1126.33 Q51.9875 1121.72 51.9875 1113 Q51.9875 1104.25 55.043 1099.66 Q58.1217 1095.06 63.9319 1095.06 Z" fill="#000000" fill-rule="nonzero" fill-opacity="1" /><path clip-path="url(#clip530)" d="M84.0938 1124.36 L88.978 1124.36 L88.978 1130.24 L84.0938 1130.24 L84.0938 1124.36 Z" fill="#000000" fill-rule="nonzero" fill-opacity="1" /><path clip-path="url(#clip530)" d="M103.191 1126.31 L119.51 1126.31 L119.51 1130.24 L97.566 1130.24 L97.566 1126.31 Q100.228 1123.55 104.811 1118.92 Q109.418 1114.27 110.598 1112.93 Q112.844 1110.4 113.723 1108.67 Q114.626 1106.91 114.626 1105.22 Q114.626 1102.46 112.682 1100.73 Q110.76 1098.99 107.658 1098.99 Q105.459 1098.99 103.006 1099.76 Q100.575 1100.52 97.7974 1102.07 L97.7974 1097.35 Q100.621 1096.21 103.075 1095.64 Q105.529 1095.06 107.566 1095.06 Q112.936 1095.06 116.131 1097.74 Q119.325 1100.43 119.325 1104.92 Q119.325 1107.05 118.515 1108.97 Q117.728 1110.87 115.621 1113.46 Q115.043 1114.13 111.941 1117.35 Q108.839 1120.54 103.191 1126.31 Z" fill="#000000" fill-rule="nonzero" fill-opacity="1" /><path clip-path="url(#clip530)" d="M129.371 1095.68 L147.728 1095.68 L147.728 1099.62 L133.654 1099.62 L133.654 1108.09 Q134.672 1107.74 135.691 1107.58 Q136.709 1107.39 137.728 1107.39 Q143.515 1107.39 146.894 1110.57 Q150.274 1113.74 150.274 1119.15 Q150.274 1124.73 146.802 1127.83 Q143.33 1130.91 137.01 1130.91 Q134.834 1130.91 132.566 1130.54 Q130.32 1130.17 127.913 1129.43 L127.913 1124.73 Q129.996 1125.87 132.219 1126.42 Q134.441 1126.98 136.918 1126.98 Q140.922 1126.98 143.26 1124.87 Q145.598 1122.77 145.598 1119.15 Q145.598 1115.54 143.26 1113.44 Q140.922 1111.33 136.918 1111.33 Q135.043 1111.33 133.168 1111.75 Q131.316 1112.16 129.371 1113.04 L129.371 1095.68 Z" fill="#000000" fill-rule="nonzero" fill-opacity="1" /><path clip-path="url(#clip530)" d="M62.9365 756.832 Q59.3254 756.832 57.4967 760.397 Q55.6912 763.939 55.6912 771.068 Q55.6912 778.175 57.4967 781.739 Q59.3254 785.281 62.9365 785.281 Q66.5707 785.281 68.3763 781.739 Q70.205 778.175 70.205 771.068 Q70.205 763.939 68.3763 760.397 Q66.5707 756.832 62.9365 756.832 M62.9365 753.128 Q68.7467 753.128 71.8022 757.735 Q74.8809 762.318 74.8809 771.068 Q74.8809 779.795 71.8022 784.401 Q68.7467 788.985 62.9365 788.985 Q57.1264 788.985 54.0477 784.401 Q50.9921 779.795 50.9921 771.068 Q50.9921 762.318 54.0477 757.735 Q57.1264 753.128 62.9365 753.128 Z" fill="#000000" fill-rule="nonzero" fill-opacity="1" /><path clip-path="url(#clip530)" d="M83.0984 782.434 L87.9827 782.434 L87.9827 788.313 L83.0984 788.313 L83.0984 782.434 Z" fill="#000000" fill-rule="nonzero" fill-opacity="1" /><path clip-path="url(#clip530)" d="M98.2141 753.753 L116.57 753.753 L116.57 757.689 L102.496 757.689 L102.496 766.161 Q103.515 765.814 104.534 765.652 Q105.552 765.466 106.571 765.466 Q112.358 765.466 115.737 768.638 Q119.117 771.809 119.117 777.226 Q119.117 782.804 115.645 785.906 Q112.172 788.985 105.853 788.985 Q103.677 788.985 101.409 788.614 Q99.1632 788.244 96.7558 787.503 L96.7558 782.804 Q98.8391 783.938 101.061 784.494 Q103.284 785.05 105.76 785.05 Q109.765 785.05 112.103 782.943 Q114.441 780.837 114.441 777.226 Q114.441 773.614 112.103 771.508 Q109.765 769.401 105.76 769.401 Q103.885 769.401 102.01 769.818 Q100.159 770.235 98.2141 771.114 L98.2141 753.753 Z" fill="#000000" fill-rule="nonzero" fill-opacity="1" /><path clip-path="url(#clip530)" d="M138.33 756.832 Q134.719 756.832 132.89 760.397 Q131.084 763.939 131.084 771.068 Q131.084 778.175 132.89 781.739 Q134.719 785.281 138.33 785.281 Q141.964 785.281 143.769 781.739 Q145.598 778.175 145.598 771.068 Q145.598 763.939 143.769 760.397 Q141.964 756.832 138.33 756.832 M138.33 753.128 Q144.14 753.128 147.195 757.735 Q150.274 762.318 150.274 771.068 Q150.274 779.795 147.195 784.401 Q144.14 788.985 138.33 788.985 Q132.519 788.985 129.441 784.401 Q126.385 779.795 126.385 771.068 Q126.385 762.318 129.441 757.735 Q132.519 753.128 138.33 753.128 Z" fill="#000000" fill-rule="nonzero" fill-opacity="1" /><path clip-path="url(#clip530)" d="M63.9319 414.904 Q60.3208 414.904 58.4921 418.468 Q56.6865 422.01 56.6865 429.14 Q56.6865 436.246 58.4921 439.811 Q60.3208 443.353 63.9319 443.353 Q67.5661 443.353 69.3717 439.811 Q71.2004 436.246 71.2004 429.14 Q71.2004 422.01 69.3717 418.468 Q67.5661 414.904 63.9319 414.904 M63.9319 411.2 Q69.742 411.2 72.7976 415.806 Q75.8763 420.39 75.8763 429.14 Q75.8763 437.867 72.7976 442.473 Q69.742 447.056 63.9319 447.056 Q58.1217 447.056 55.043 442.473 Q51.9875 437.867 51.9875 429.14 Q51.9875 420.39 55.043 415.806 Q58.1217 411.2 63.9319 411.2 Z" fill="#000000" fill-rule="nonzero" fill-opacity="1" /><path clip-path="url(#clip530)" d="M84.0938 440.505 L88.978 440.505 L88.978 446.385 L84.0938 446.385 L84.0938 440.505 Z" fill="#000000" fill-rule="nonzero" fill-opacity="1" /><path clip-path="url(#clip530)" d="M97.9826 411.825 L120.205 411.825 L120.205 413.816 L107.658 446.385 L102.774 446.385 L114.58 415.76 L97.9826 415.76 L97.9826 411.825 Z" fill="#000000" fill-rule="nonzero" fill-opacity="1" /><path clip-path="url(#clip530)" d="M129.371 411.825 L147.728 411.825 L147.728 415.76 L133.654 415.76 L133.654 424.232 Q134.672 423.885 135.691 423.723 Q136.709 423.538 137.728 423.538 Q143.515 423.538 146.894 426.709 Q150.274 429.88 150.274 435.297 Q150.274 440.876 146.802 443.978 Q143.33 447.056 137.01 447.056 Q134.834 447.056 132.566 446.686 Q130.32 446.316 127.913 445.575 L127.913 440.876 Q129.996 442.01 132.219 442.566 Q134.441 443.121 136.918 443.121 Q140.922 443.121 143.26 441.015 Q145.598 438.908 145.598 435.297 Q145.598 431.686 143.26 429.58 Q140.922 427.473 136.918 427.473 Q135.043 427.473 133.168 427.89 Q131.316 428.306 129.371 429.186 L129.371 411.825 Z" fill="#000000" fill-rule="nonzero" fill-opacity="1" /><path clip-path="url(#clip530)" d="M53.7467 100.521 L61.3856 100.521 L61.3856 74.1558 L53.0754 75.8225 L53.0754 71.5632 L61.3393 69.8966 L66.0152 69.8966 L66.0152 100.521 L73.654 100.521 L73.654 104.457 L53.7467 104.457 L53.7467 100.521 Z" fill="#000000" fill-rule="nonzero" fill-opacity="1" /><path clip-path="url(#clip530)" d="M83.0984 98.577 L87.9827 98.577 L87.9827 104.457 L83.0984 104.457 L83.0984 98.577 Z" fill="#000000" fill-rule="nonzero" fill-opacity="1" /><path clip-path="url(#clip530)" d="M108.168 72.9753 Q104.557 72.9753 102.728 76.5401 Q100.922 80.0817 100.922 87.2113 Q100.922 94.3177 102.728 97.8825 Q104.557 101.424 108.168 101.424 Q111.802 101.424 113.608 97.8825 Q115.436 94.3177 115.436 87.2113 Q115.436 80.0817 113.608 76.5401 Q111.802 72.9753 108.168 72.9753 M108.168 69.2716 Q113.978 69.2716 117.033 73.878 Q120.112 78.4614 120.112 87.2113 Q120.112 95.9381 117.033 100.545 Q113.978 105.128 108.168 105.128 Q102.358 105.128 99.2789 100.545 Q96.2234 95.9381 96.2234 87.2113 Q96.2234 78.4614 99.2789 73.878 Q102.358 69.2716 108.168 69.2716 Z" fill="#000000" fill-rule="nonzero" fill-opacity="1" /><path clip-path="url(#clip530)" d="M138.33 72.9753 Q134.719 72.9753 132.89 76.5401 Q131.084 80.0817 131.084 87.2113 Q131.084 94.3177 132.89 97.8825 Q134.719 101.424 138.33 101.424 Q141.964 101.424 143.769 97.8825 Q145.598 94.3177 145.598 87.2113 Q145.598 80.0817 143.769 76.5401 Q141.964 72.9753 138.33 72.9753 M138.33 69.2716 Q144.14 69.2716 147.195 73.878 Q150.274 78.4614 150.274 87.2113 Q150.274 95.9381 147.195 100.545 Q144.14 105.128 138.33 105.128 Q132.519 105.128 129.441 100.545 Q126.385 95.9381 126.385 87.2113 Q126.385 78.4614 129.441 73.878 Q132.519 69.2716 138.33 69.2716 Z" fill="#000000" fill-rule="nonzero" fill-opacity="1" /><polyline clip-path="url(#clip532)" style="stroke:#009af9; stroke-linecap:round; stroke-linejoin:round; stroke-width:4; stroke-opacity:1; fill:none" points="247.59,1039.77 268.234,1255.81 288.879,919.524 309.524,1444.42 330.169,391.144 350.814,550.501 371.459,515.182 392.104,111.131 412.749,941.71 433.394,526.923 454.039,850.969 474.684,418.426 495.329,491.676 515.974,1384.41 536.619,820.626 557.264,484.177 577.909,628.915 598.554,924.534 619.199,1308.69 639.844,572.114 660.489,1420.31 681.134,401.755 701.779,96.5651 722.424,1140.61 743.069,1438.09 763.713,1187.33 784.358,660.872 805.003,912.762 825.648,1292.23 846.293,1326.71 866.938,209.712 887.583,1282.43 908.228,133.5 928.873,1445.72 949.518,177.313 970.163,563.297 990.808,260.6 1011.45,1125.03 1032.1,1149.58 1052.74,808.848 1073.39,1295.63 1094.03,182.69 1114.68,656.203 1135.32,531.048 1155.97,196.356 1176.61,361.444 1197.26,730.509 1217.9,112.075 1238.55,741.063 1259.19,941.191 1279.84,590.751 1300.48,146.329 1321.13,1029.19 1341.77,633.055 1362.42,1389.77 1383.06,1175.04 1403.71,952.257 1424.35,1112.37 1445,256.346 1465.64,420.678 1486.29,273.966 1506.93,390.814 1527.58,1265.67 1548.22,733.87 1568.87,1272.36 1589.51,1426.9 1610.16,1294.99 1630.8,458.025 1651.45,744.628 1672.09,788.192 1692.74,286.709 1713.38,479.471 1734.03,846.611 1754.67,249.564 1775.32,1416.16 1795.96,649.644 1816.61,505.534 1837.25,691.916 1857.9,1171.88 1878.54,346.871 1899.19,1368.74 1919.83,913.166 1940.48,385.829 1961.12,1090.56 1981.77,306.689 2002.41,869.739 2023.06,195.618 2043.7,849.512 2064.35,1035.96 2084.99,982.284 2105.64,908.108 2126.28,309.734 2146.93,1200.17 2167.57,1252.59 2188.22,950.286 2208.86,409.006 2229.51,1154.17 2250.15,1228.52 2270.8,1138.13 2291.44,1286.25 "/>
<polyline clip-path="url(#clip532)" style="stroke:#e26f46; stroke-linecap:round; stroke-linejoin:round; stroke-width:4; stroke-opacity:1; fill:none" points="247.59,1297.82 268.234,891.917 288.879,623.938 309.524,498.666 330.169,967.881 350.814,1071.93 371.459,1269.05 392.104,1170.44 412.749,1339.04 433.394,385.16 454.039,107.472 474.684,207.294 495.329,472.268 515.974,1255.83 536.619,408.986 557.264,207.092 577.909,1435.17 598.554,413.472 619.199,478.39 639.844,1036.28 660.489,811.024 681.134,163.101 701.779,1358.49 722.424,426.592 743.069,510.882 763.713,610.174 784.358,246.584 805.003,258.472 825.648,1301.52 846.293,1261.71 866.938,569.814 887.583,341.337 908.228,1056.93 928.873,322.535 949.518,1067.73 970.163,349.512 990.808,1212.49 1011.45,161.503 1032.1,934.15 1052.74,1194.48 1073.39,362.559 1094.03,314.876 1114.68,134.121 1135.32,930.917 1155.97,706.542 1176.61,810.742 1197.26,837.165 1217.9,148.524 1238.55,1016.95 1259.19,959.912 1279.84,509.694 1300.48,1411.69 1321.13,1350.33 1341.77,271.172 1362.42,548.568 1383.06,996.661 1403.71,726.017 1424.35,206.349 1445,413.281 1465.64,1106.85 1486.29,242.699 1506.93,976.383 1527.58,819.798 1548.22,647.801 1568.87,874.086 1589.51,1237.07 1610.16,1066.05 1630.8,917.785 1651.45,411.227 1672.09,534.692 1692.74,1178.08 1713.38,558.808 1734.03,563.865 1754.67,87.9763 1775.32,782.168 1795.96,1169.75 1816.61,632.522 1837.25,1316.72 1857.9,432.206 1878.54,959.604 1899.19,423.735 1919.83,990.186 1940.48,344.891 1961.12,573.132 1981.77,1426.77 2002.41,1287.71 2023.06,1249.06 2043.7,577.988 2064.35,108.863 2084.99,415.344 2105.64,568.552 2126.28,940.567 2146.93,1216.93 2167.57,486.531 2188.22,379.405 2208.86,998.045 2229.51,1254.84 2250.15,302.429 2270.8,161.196 2291.44,996.369 "/>
<path clip-path="url(#clip530)" d="M258.49 250.738 L527.569 250.738 L527.569 95.2176 L258.49 95.2176  Z" fill="#ffffff" fill-rule="evenodd" fill-opacity="1"/>
<polyline clip-path="url(#clip530)" style="stroke:#000000; stroke-linecap:round; stroke-linejoin:round; stroke-width:4; stroke-opacity:1; fill:none" points="258.49,250.738 527.569,250.738 527.569,95.2176 258.49,95.2176 258.49,250.738 "/>
<polyline clip-path="url(#clip530)" style="stroke:#009af9; stroke-linecap:round; stroke-linejoin:round; stroke-width:4; stroke-opacity:1; fill:none" points="282.562,147.058 426.994,147.058 "/>
<path clip-path="url(#clip530)" d="M464.909 166.745 Q463.103 171.375 461.39 172.787 Q459.677 174.199 456.807 174.199 L453.404 174.199 L453.404 170.634 L455.904 170.634 Q457.663 170.634 458.636 169.8 Q459.608 168.967 460.788 165.865 L461.552 163.921 L451.066 138.412 L455.58 138.412 L463.682 158.689 L471.784 138.412 L476.298 138.412 L464.909 166.745 Z" fill="#000000" fill-rule="nonzero" fill-opacity="1" /><path clip-path="url(#clip530)" d="M483.589 160.402 L491.228 160.402 L491.228 134.037 L482.918 135.703 L482.918 131.444 L491.182 129.778 L495.858 129.778 L495.858 160.402 L503.497 160.402 L503.497 164.338 L483.589 164.338 L483.589 160.402 Z" fill="#000000" fill-rule="nonzero" fill-opacity="1" /><polyline clip-path="url(#clip530)" style="stroke:#e26f46; stroke-linecap:round; stroke-linejoin:round; stroke-width:4; stroke-opacity:1; fill:none" points="282.562,198.898 426.994,198.898 "/>
<path clip-path="url(#clip530)" d="M464.909 218.585 Q463.103 223.215 461.39 224.627 Q459.677 226.039 456.807 226.039 L453.404 226.039 L453.404 222.474 L455.904 222.474 Q457.663 222.474 458.636 221.64 Q459.608 220.807 460.788 217.705 L461.552 215.761 L451.066 190.252 L455.58 190.252 L463.682 210.529 L471.784 190.252 L476.298 190.252 L464.909 218.585 Z" fill="#000000" fill-rule="nonzero" fill-opacity="1" /><path clip-path="url(#clip530)" d="M486.807 212.242 L503.126 212.242 L503.126 216.178 L481.182 216.178 L481.182 212.242 Q483.844 209.488 488.427 204.858 Q493.034 200.205 494.214 198.863 Q496.46 196.34 497.339 194.604 Q498.242 192.844 498.242 191.155 Q498.242 188.4 496.297 186.664 Q494.376 184.928 491.274 184.928 Q489.075 184.928 486.622 185.692 Q484.191 186.455 481.413 188.006 L481.413 183.284 Q484.237 182.15 486.691 181.571 Q489.145 180.993 491.182 180.993 Q496.552 180.993 499.747 183.678 Q502.941 186.363 502.941 190.854 Q502.941 192.983 502.131 194.905 Q501.344 196.803 499.237 199.395 Q498.659 200.067 495.557 203.284 Q492.455 206.479 486.807 212.242 Z" fill="#000000" fill-rule="nonzero" fill-opacity="1" /></svg>
